# WaveFront *.obj file (generated by Autodesk ATF)

mtllib Chair.mtl

g Chair

v -0.400000 0.700000 -0.400000
v -0.400000 0.700000 0.400000
v -0.400000 0.740000 -0.400000
v -0.400000 0.740000 0.400000
v -0.400000 1.140000 0.290000
v -0.400000 1.140000 0.330000
v -0.400000 1.390000 0.290000
v -0.400000 1.390000 0.330000
v -0.350000 0.000000 -0.350000
v -0.350000 0.000000 -0.310000
v -0.350000 0.000000 0.310000
v -0.350000 0.000000 0.350000
v -0.350000 0.700000 -0.350000
v -0.350000 0.700000 -0.310000
v -0.350000 0.700000 0.310000
v -0.350000 0.700000 0.350000
v -0.350000 0.740000 0.310000
v -0.350000 0.740000 0.350000
v -0.350000 1.140000 0.310000
v -0.350000 1.140000 0.330000
v -0.350000 1.390000 0.310000
v -0.350000 1.390000 0.330000
v -0.350000 1.490000 0.310000
v -0.350000 1.490000 0.350000
v -0.310000 0.000000 -0.350000
v -0.310000 0.000000 -0.310000
v -0.310000 0.000000 0.310000
v -0.310000 0.000000 0.350000
v -0.310000 0.700000 -0.350000
v -0.310000 0.700000 -0.310000
v -0.310000 0.700000 0.310000
v -0.310000 0.700000 0.350000
v -0.310000 0.740000 0.310000
v -0.310000 0.740000 0.350000
v -0.310000 1.140000 0.310000
v -0.310000 1.140000 0.330000
v -0.310000 1.390000 0.310000
v -0.310000 1.390000 0.330000
v -0.310000 1.490000 0.310000
v -0.310000 1.490000 0.350000
v 0.310000 0.000000 -0.350000
v 0.310000 0.000000 -0.310000
v 0.310000 0.000000 0.310000
v 0.310000 0.000000 0.350000
v 0.310000 0.700000 -0.350000
v 0.310000 0.700000 -0.310000
v 0.310000 0.700000 0.310000
v 0.310000 0.700000 0.350000
v 0.310000 0.740000 0.310000
v 0.310000 0.740000 0.350000
v 0.310000 1.140000 0.310000
v 0.310000 1.140000 0.330000
v 0.310000 1.390000 0.310000
v 0.310000 1.390000 0.330000
v 0.310000 1.490000 0.310000
v 0.310000 1.490000 0.350000
v 0.350000 0.000000 -0.350000
v 0.350000 0.000000 -0.310000
v 0.350000 0.000000 0.310000
v 0.350000 0.000000 0.350000
v 0.350000 0.700000 -0.350000
v 0.350000 0.700000 -0.310000
v 0.350000 0.700000 0.310000
v 0.350000 0.700000 0.350000
v 0.350000 0.740000 0.310000
v 0.350000 0.740000 0.350000
v 0.350000 1.140000 0.310000
v 0.350000 1.140000 0.330000
v 0.350000 1.390000 0.310000
v 0.350000 1.390000 0.330000
v 0.350000 1.490000 0.310000
v 0.350000 1.490000 0.350000
v 0.400000 0.700000 -0.400000
v 0.400000 0.700000 0.400000
v 0.400000 0.740000 -0.400000
v 0.400000 0.740000 0.400000
v 0.400000 1.140000 0.290000
v 0.400000 1.140000 0.330000
v 0.400000 1.390000 0.290000
v 0.400000 1.390000 0.330000
vt 0.005000 -0.002000 0.000000
vt 0.005000 0.000000 0.000000
vt 0.009000 0.000000 0.000000
vt 0.009000 -0.002000 0.000000
vt 0.071000 -0.002000 0.000000
vt 0.071000 0.000000 0.000000
vt 0.075000 0.000000 0.000000
vt 0.075000 -0.002000 0.000000
vt 0.080000 -0.002000 0.000000
vt 0.080000 0.002000 0.000000
vt 0.000000 0.002000 0.000000
vt 0.000000 -0.002000 0.000000
vt -0.035000 -0.012500 0.000000
vt -0.035000 0.012500 0.000000
vt -0.040000 0.012500 0.000000
vt -0.040000 -0.012500 0.000000
vt 0.031000 -0.012500 0.000000
vt 0.031000 0.012500 0.000000
vt -0.031000 0.012500 0.000000
vt -0.031000 -0.012500 0.000000
vt 0.035000 0.012500 0.000000
vt 0.035000 -0.012500 0.000000
vt 0.040000 -0.012500 0.000000
vt 0.040000 0.012500 0.000000
vt 0.025000 -0.002000 0.000000
vt 0.025000 0.002000 0.000000
vt 0.000000 0.002000 0.000000
vt 0.000000 -0.002000 0.000000
vt 0.075000 0.000000 0.000000
vt 0.075000 -0.002000 0.000000
vt 0.080000 -0.002000 0.000000
vt 0.080000 0.002000 0.000000
vt 0.000000 0.002000 0.000000
vt 0.000000 -0.002000 0.000000
vt 0.005000 -0.002000 0.000000
vt 0.005000 0.000000 0.000000
vt 0.009000 0.000000 0.000000
vt 0.009000 -0.002000 0.000000
vt 0.071000 -0.002000 0.000000
vt 0.071000 0.000000 0.000000
vt 0.025000 -0.002000 0.000000
vt 0.025000 0.002000 0.000000
vt 0.000000 0.002000 0.000000
vt 0.000000 -0.002000 0.000000
vt -0.040000 -0.012500 0.000000
vt 0.040000 -0.012500 0.000000
vt 0.040000 0.012500 0.000000
vt -0.040000 0.012500 0.000000
vt 0.004000 0.040000 0.000000
vt 0.002000 0.040000 0.000000
vt 0.002000 0.065000 0.000000
vt 0.004000 0.065000 0.000000
vt 0.004000 0.075000 0.000000
vt 0.000000 0.075000 0.000000
vt 0.000000 0.000000 0.000000
vt 0.004000 0.000000 0.000000
vt 0.000000 0.065000 0.000000
vt 0.004000 0.065000 0.000000
vt 0.004000 0.075000 0.000000
vt 0.000000 0.075000 0.000000
vt 0.004000 0.040000 0.000000
vt 0.002000 0.040000 0.000000
vt 0.002000 0.065000 0.000000
vt 0.004000 0.065000 0.000000
vt 0.004000 0.075000 0.000000
vt 0.000000 0.075000 0.000000
vt 0.000000 0.000000 0.000000
vt 0.004000 0.000000 0.000000
vt 0.000000 0.065000 0.000000
vt 0.004000 0.065000 0.000000
vt 0.004000 0.075000 0.000000
vt 0.000000 0.075000 0.000000
vt 0.000000 0.000000 0.000000
vt 0.004000 0.000000 0.000000
vt 0.004000 0.075000 0.000000
vt 0.000000 0.075000 0.000000
vt 0.002000 0.040000 0.000000
vt 0.000000 0.040000 0.000000
vt 0.000000 0.000000 0.000000
vt 0.004000 0.000000 0.000000
vt 0.004000 0.075000 0.000000
vt 0.000000 0.075000 0.000000
vt 0.000000 0.065000 0.000000
vt 0.002000 0.065000 0.000000
vt 0.004000 0.040000 0.000000
vt 0.000000 0.040000 0.000000
vt 0.000000 0.000000 0.000000
vt 0.004000 0.000000 0.000000
vt -0.002000 0.002000 0.000000
vt -0.002000 -0.002000 0.000000
vt 0.002000 -0.002000 0.000000
vt 0.002000 0.002000 0.000000
vt 0.000000 0.000000 0.000000
vt 0.004000 0.000000 0.000000
vt 0.004000 0.075000 0.000000
vt 0.000000 0.075000 0.000000
vt 0.002000 0.040000 0.000000
vt 0.000000 0.040000 0.000000
vt 0.000000 0.000000 0.000000
vt 0.004000 0.000000 0.000000
vt 0.004000 0.075000 0.000000
vt 0.000000 0.075000 0.000000
vt 0.000000 0.065000 0.000000
vt 0.002000 0.065000 0.000000
vt 0.004000 0.040000 0.000000
vt 0.000000 0.040000 0.000000
vt 0.000000 0.000000 0.000000
vt 0.004000 0.000000 0.000000
vt -0.002000 0.002000 0.000000
vt -0.002000 -0.002000 0.000000
vt 0.002000 -0.002000 0.000000
vt 0.002000 0.002000 0.000000
vt -0.035000 0.035000 0.000000
vt -0.031000 0.035000 0.000000
vt -0.031000 0.031000 0.000000
vt -0.035000 0.031000 0.000000
vt 0.031000 -0.031000 0.000000
vt 0.035000 -0.031000 0.000000
vt 0.035000 -0.035000 0.000000
vt 0.031000 -0.035000 0.000000
vt 0.031000 0.035000 0.000000
vt 0.035000 0.035000 0.000000
vt 0.035000 0.031000 0.000000
vt 0.031000 0.031000 0.000000
vt -0.035000 -0.031000 0.000000
vt -0.031000 -0.031000 0.000000
vt -0.031000 -0.035000 0.000000
vt -0.035000 -0.035000 0.000000
vt -0.040000 -0.040000 0.000000
vt 0.040000 -0.040000 0.000000
vt 0.040000 0.040000 0.000000
vt -0.040000 0.040000 0.000000
vt 0.000000 0.000000 0.000000
vt 0.080000 0.000000 0.000000
vt 0.080000 0.004000 0.000000
vt 0.000000 0.004000 0.000000
vt 0.000000 0.000000 0.000000
vt 0.080000 0.000000 0.000000
vt 0.080000 0.004000 0.000000
vt 0.000000 0.004000 0.000000
vt 0.000000 0.000000 0.000000
vt 0.080000 0.000000 0.000000
vt 0.080000 0.004000 0.000000
vt 0.000000 0.004000 0.000000
vt 0.000000 0.000000 0.000000
vt 0.080000 0.000000 0.000000
vt 0.080000 0.004000 0.000000
vt 0.000000 0.004000 0.000000
vt 0.031000 0.035000 0.000000
vt 0.035000 0.035000 0.000000
vt 0.035000 0.031000 0.000000
vt 0.031000 0.031000 0.000000
vt 0.031000 -0.031000 0.000000
vt 0.035000 -0.031000 0.000000
vt 0.035000 -0.035000 0.000000
vt 0.031000 -0.035000 0.000000
vt -0.040000 -0.040000 0.000000
vt 0.040000 -0.040000 0.000000
vt 0.040000 0.040000 0.000000
vt -0.040000 0.040000 0.000000
vt 0.000000 0.000000 0.000000
vt 0.004000 0.000000 0.000000
vt 0.004000 0.070000 0.000000
vt 0.000000 0.070000 0.000000
vt 0.000000 0.000000 0.000000
vt 0.004000 0.000000 0.000000
vt 0.004000 0.070000 0.000000
vt 0.000000 0.070000 0.000000
vt 0.000000 0.000000 0.000000
vt 0.004000 0.000000 0.000000
vt 0.004000 0.070000 0.000000
vt 0.000000 0.070000 0.000000
vt 0.000000 0.000000 0.000000
vt 0.004000 0.000000 0.000000
vt 0.004000 0.070000 0.000000
vt 0.000000 0.070000 0.000000
vt 0.002000 -0.002000 0.000000
vt 0.002000 0.002000 0.000000
vt -0.002000 0.002000 0.000000
vt -0.002000 -0.002000 0.000000
vt 0.000000 0.000000 0.000000
vt 0.004000 0.000000 0.000000
vt 0.004000 0.070000 0.000000
vt 0.000000 0.070000 0.000000
vt 0.000000 0.000000 0.000000
vt 0.004000 0.000000 0.000000
vt 0.004000 0.070000 0.000000
vt 0.000000 0.070000 0.000000
vt 0.000000 0.000000 0.000000
vt 0.004000 0.000000 0.000000
vt 0.004000 0.070000 0.000000
vt 0.000000 0.070000 0.000000
vt 0.000000 0.000000 0.000000
vt 0.004000 0.000000 0.000000
vt 0.004000 0.070000 0.000000
vt 0.000000 0.070000 0.000000
vt 0.002000 -0.002000 0.000000
vt 0.002000 0.002000 0.000000
vt -0.002000 0.002000 0.000000
vt -0.002000 -0.002000 0.000000
vt 0.000000 0.000000 0.000000
vt 0.004000 0.000000 0.000000
vt 0.004000 0.070000 0.000000
vt 0.000000 0.070000 0.000000
vt 0.000000 0.000000 0.000000
vt 0.004000 0.000000 0.000000
vt 0.004000 0.070000 0.000000
vt 0.000000 0.070000 0.000000
vt 0.000000 0.000000 0.000000
vt 0.004000 0.000000 0.000000
vt 0.004000 0.070000 0.000000
vt 0.000000 0.070000 0.000000
vt 0.000000 0.000000 0.000000
vt 0.004000 0.000000 0.000000
vt 0.004000 0.070000 0.000000
vt 0.000000 0.070000 0.000000
vt 0.002000 -0.002000 0.000000
vt 0.002000 0.002000 0.000000
vt -0.002000 0.002000 0.000000
vt -0.002000 -0.002000 0.000000
vt 0.000000 0.000000 0.000000
vt 0.004000 0.000000 0.000000
vt 0.004000 0.070000 0.000000
vt 0.000000 0.070000 0.000000
vt 0.000000 0.000000 0.000000
vt 0.004000 0.000000 0.000000
vt 0.004000 0.070000 0.000000
vt 0.000000 0.070000 0.000000
vt 0.000000 0.000000 0.000000
vt 0.004000 0.000000 0.000000
vt 0.004000 0.070000 0.000000
vt 0.000000 0.070000 0.000000
vt 0.000000 0.000000 0.000000
vt 0.004000 0.000000 0.000000
vt 0.004000 0.070000 0.000000
vt 0.000000 0.070000 0.000000
vt 0.002000 -0.002000 0.000000
vt 0.002000 0.002000 0.000000
vt -0.002000 0.002000 0.000000
vt -0.002000 -0.002000 0.000000
vn 0.000000 -0.100000 0.000000
vn 0.000000 -0.100000 0.000000
vn 0.000000 -0.100000 0.000000
vn 0.000000 -0.100000 0.000000
vn 0.000000 -0.100000 0.000000
vn 0.000000 -0.100000 0.000000
vn 0.000000 -0.100000 0.000000
vn 0.000000 -0.100000 0.000000
vn 0.000000 -0.100000 0.000000
vn 0.000000 -0.100000 0.000000
vn 0.000000 -0.100000 0.000000
vn 0.000000 -0.100000 0.000000
vn 0.000000 0.000000 0.100000
vn 0.000000 0.000000 0.100000
vn 0.000000 0.000000 0.100000
vn 0.000000 0.000000 0.100000
vn 0.000000 0.000000 0.100000
vn 0.000000 0.000000 0.100000
vn 0.000000 0.000000 0.100000
vn 0.000000 0.000000 0.100000
vn 0.000000 0.000000 0.100000
vn 0.000000 0.000000 0.100000
vn 0.000000 0.000000 0.100000
vn 0.000000 0.000000 0.100000
vn 0.100000 0.000000 0.000000
vn 0.100000 0.000000 0.000000
vn 0.100000 0.000000 0.000000
vn 0.100000 0.000000 0.000000
vn 0.000000 0.100000 0.000000
vn 0.000000 0.100000 0.000000
vn 0.000000 0.100000 0.000000
vn 0.000000 0.100000 0.000000
vn 0.000000 0.100000 0.000000
vn 0.000000 0.100000 0.000000
vn 0.000000 0.100000 0.000000
vn 0.000000 0.100000 0.000000
vn 0.000000 0.100000 0.000000
vn 0.000000 0.100000 0.000000
vn 0.000000 0.100000 0.000000
vn 0.000000 0.100000 0.000000
vn -0.100000 0.000000 0.000000
vn -0.100000 0.000000 0.000000
vn -0.100000 0.000000 0.000000
vn -0.100000 0.000000 0.000000
vn 0.000000 0.000000 -0.100000
vn 0.000000 0.000000 -0.100000
vn 0.000000 0.000000 -0.100000
vn 0.000000 0.000000 -0.100000
vn 0.100000 0.000000 0.000000
vn 0.100000 0.000000 0.000000
vn 0.100000 0.000000 0.000000
vn 0.100000 0.000000 0.000000
vn 0.100000 0.000000 0.000000
vn 0.100000 0.000000 0.000000
vn 0.100000 0.000000 0.000000
vn 0.100000 0.000000 0.000000
vn 0.000000 0.000000 -0.100000
vn 0.000000 0.000000 -0.100000
vn 0.000000 0.000000 -0.100000
vn 0.000000 0.000000 -0.100000
vn 0.100000 0.000000 0.000000
vn 0.100000 0.000000 0.000000
vn 0.100000 0.000000 0.000000
vn 0.100000 0.000000 0.000000
vn 0.100000 0.000000 0.000000
vn 0.100000 0.000000 0.000000
vn 0.100000 0.000000 0.000000
vn 0.100000 0.000000 0.000000
vn 0.000000 0.000000 -0.100000
vn 0.000000 0.000000 -0.100000
vn 0.000000 0.000000 -0.100000
vn 0.000000 0.000000 -0.100000
vn 0.000000 0.000000 0.100000
vn 0.000000 0.000000 0.100000
vn 0.000000 0.000000 0.100000
vn 0.000000 0.000000 0.100000
vn -0.100000 0.000000 0.000000
vn -0.100000 0.000000 0.000000
vn -0.100000 0.000000 0.000000
vn -0.100000 0.000000 0.000000
vn -0.100000 0.000000 0.000000
vn -0.100000 0.000000 0.000000
vn -0.100000 0.000000 0.000000
vn -0.100000 0.000000 0.000000
vn 0.000000 0.000000 -0.100000
vn 0.000000 0.000000 -0.100000
vn 0.000000 0.000000 -0.100000
vn 0.000000 0.000000 -0.100000
vn 0.000000 0.100000 0.000000
vn 0.000000 0.100000 0.000000
vn 0.000000 0.100000 0.000000
vn 0.000000 0.100000 0.000000
vn 0.000000 0.000000 0.100000
vn 0.000000 0.000000 0.100000
vn 0.000000 0.000000 0.100000
vn 0.000000 0.000000 0.100000
vn -0.100000 0.000000 0.000000
vn -0.100000 0.000000 0.000000
vn -0.100000 0.000000 0.000000
vn -0.100000 0.000000 0.000000
vn -0.100000 0.000000 0.000000
vn -0.100000 0.000000 0.000000
vn -0.100000 0.000000 0.000000
vn -0.100000 0.000000 0.000000
vn 0.000000 0.000000 -0.100000
vn 0.000000 0.000000 -0.100000
vn 0.000000 0.000000 -0.100000
vn 0.000000 0.000000 -0.100000
vn 0.000000 0.100000 0.000000
vn 0.000000 0.100000 0.000000
vn 0.000000 0.100000 0.000000
vn 0.000000 0.100000 0.000000
vn 0.000000 -0.100000 0.000000
vn 0.000000 -0.100000 0.000000
vn 0.000000 -0.100000 0.000000
vn 0.000000 -0.100000 0.000000
vn 0.000000 -0.100000 0.000000
vn 0.000000 -0.100000 0.000000
vn 0.000000 -0.100000 0.000000
vn 0.000000 -0.100000 0.000000
vn 0.000000 -0.100000 0.000000
vn 0.000000 -0.100000 0.000000
vn 0.000000 -0.100000 0.000000
vn 0.000000 -0.100000 0.000000
vn 0.000000 -0.100000 0.000000
vn 0.000000 -0.100000 0.000000
vn 0.000000 -0.100000 0.000000
vn 0.000000 -0.100000 0.000000
vn 0.000000 -0.100000 0.000000
vn 0.000000 -0.100000 0.000000
vn 0.000000 -0.100000 0.000000
vn 0.000000 -0.100000 0.000000
vn 0.000000 0.000000 -0.100000
vn 0.000000 0.000000 -0.100000
vn 0.000000 0.000000 -0.100000
vn 0.000000 0.000000 -0.100000
vn 0.100000 0.000000 0.000000
vn 0.100000 0.000000 0.000000
vn 0.100000 0.000000 0.000000
vn 0.100000 0.000000 0.000000
vn 0.000000 0.000000 0.100000
vn 0.000000 0.000000 0.100000
vn 0.000000 0.000000 0.100000
vn 0.000000 0.000000 0.100000
vn -0.100000 0.000000 0.000000
vn -0.100000 0.000000 0.000000
vn -0.100000 0.000000 0.000000
vn -0.100000 0.000000 0.000000
vn 0.000000 0.100000 0.000000
vn 0.000000 0.100000 0.000000
vn 0.000000 0.100000 0.000000
vn 0.000000 0.100000 0.000000
vn 0.000000 0.100000 0.000000
vn 0.000000 0.100000 0.000000
vn 0.000000 0.100000 0.000000
vn 0.000000 0.100000 0.000000
vn 0.000000 0.100000 0.000000
vn 0.000000 0.100000 0.000000
vn 0.000000 0.100000 0.000000
vn 0.000000 0.100000 0.000000
vn 0.100000 0.000000 0.000000
vn 0.100000 0.000000 0.000000
vn 0.100000 0.000000 0.000000
vn 0.100000 0.000000 0.000000
vn 0.000000 0.000000 0.100000
vn 0.000000 0.000000 0.100000
vn 0.000000 0.000000 0.100000
vn 0.000000 0.000000 0.100000
vn -0.100000 0.000000 0.000000
vn -0.100000 0.000000 0.000000
vn -0.100000 0.000000 0.000000
vn -0.100000 0.000000 0.000000
vn 0.000000 0.000000 -0.100000
vn 0.000000 0.000000 -0.100000
vn 0.000000 0.000000 -0.100000
vn 0.000000 0.000000 -0.100000
vn 0.000000 -0.100000 0.000000
vn 0.000000 -0.100000 0.000000
vn 0.000000 -0.100000 0.000000
vn 0.000000 -0.100000 0.000000
vn 0.100000 0.000000 0.000000
vn 0.100000 0.000000 0.000000
vn 0.100000 0.000000 0.000000
vn 0.100000 0.000000 0.000000
vn 0.000000 0.000000 0.100000
vn 0.000000 0.000000 0.100000
vn 0.000000 0.000000 0.100000
vn 0.000000 0.000000 0.100000
vn -0.100000 0.000000 0.000000
vn -0.100000 0.000000 0.000000
vn -0.100000 0.000000 0.000000
vn -0.100000 0.000000 0.000000
vn 0.000000 0.000000 -0.100000
vn 0.000000 0.000000 -0.100000
vn 0.000000 0.000000 -0.100000
vn 0.000000 0.000000 -0.100000
vn 0.000000 -0.100000 0.000000
vn 0.000000 -0.100000 0.000000
vn 0.000000 -0.100000 0.000000
vn 0.000000 -0.100000 0.000000
vn 0.100000 0.000000 0.000000
vn 0.100000 0.000000 0.000000
vn 0.100000 0.000000 0.000000
vn 0.100000 0.000000 0.000000
vn 0.000000 0.000000 0.100000
vn 0.000000 0.000000 0.100000
vn 0.000000 0.000000 0.100000
vn 0.000000 0.000000 0.100000
vn -0.100000 0.000000 0.000000
vn -0.100000 0.000000 0.000000
vn -0.100000 0.000000 0.000000
vn -0.100000 0.000000 0.000000
vn 0.000000 0.000000 -0.100000
vn 0.000000 0.000000 -0.100000
vn 0.000000 0.000000 -0.100000
vn 0.000000 0.000000 -0.100000
vn 0.000000 -0.100000 0.000000
vn 0.000000 -0.100000 0.000000
vn 0.000000 -0.100000 0.000000
vn 0.000000 -0.100000 0.000000
vn 0.100000 0.000000 0.000000
vn 0.100000 0.000000 0.000000
vn 0.100000 0.000000 0.000000
vn 0.100000 0.000000 0.000000
vn 0.000000 0.000000 0.100000
vn 0.000000 0.000000 0.100000
vn 0.000000 0.000000 0.100000
vn 0.000000 0.000000 0.100000
vn -0.100000 0.000000 0.000000
vn -0.100000 0.000000 0.000000
vn -0.100000 0.000000 0.000000
vn -0.100000 0.000000 0.000000
vn 0.000000 0.000000 -0.100000
vn 0.000000 0.000000 -0.100000
vn 0.000000 0.000000 -0.100000
vn 0.000000 0.000000 -0.100000
vn 0.000000 -0.100000 0.000000
vn 0.000000 -0.100000 0.000000
vn 0.000000 -0.100000 0.000000
vn 0.000000 -0.100000 0.000000
usemtl 191,191,191
f 68/1/1 67/2/2 78/12/12
f 78/12/12 67/2/2 77/11/11
f 77/11/11 67/2/2 51/3/3
f 77/11/11 51/3/3 35/6/6
f 35/6/6 51/3/3 36/5/5
f 36/5/5 51/3/3 52/4/4
f 77/11/11 35/6/6 5/10/10
f 5/10/10 35/6/6 19/7/7
f 5/10/10 19/7/7 6/9/9
f 6/9/9 19/7/7 20/8/8
f 22/14/14 8/15/15 20/13/13
f 20/13/13 8/15/15 6/16/16
f 54/18/18 38/19/19 52/17/17
f 52/17/17 38/19/19 36/20/20
f 68/22/22 78/23/23 70/21/21
f 70/21/21 78/23/23 80/24/24
f 77/26/26 79/27/27 78/25/25
f 78/25/25 79/27/27 80/28/28
f 70/30/30 80/31/31 69/29/29
f 69/29/29 80/31/31 79/32/32
f 69/29/29 79/32/32 53/40/40
f 53/40/40 79/32/32 7/33/33
f 53/40/40 7/33/33 37/37/37
f 37/37/37 7/33/33 21/36/36
f 21/36/36 7/33/33 8/34/34
f 21/36/36 8/34/34 22/35/35
f 38/38/38 54/39/39 37/37/37
f 37/37/37 54/39/39 53/40/40
f 7/42/42 5/43/43 8/41/41
f 8/41/41 5/43/43 6/44/44
f 77/45/45 5/46/46 79/48/48
f 79/48/48 5/46/46 7/47/47
f 67/49/49 68/50/50 65/56/56
f 65/56/56 68/50/50 66/55/55
f 66/55/55 68/50/50 72/54/54
f 72/54/54 68/50/50 70/51/51
f 72/54/54 70/51/51 71/53/53
f 71/53/53 70/51/51 69/52/52
f 69/57/57 53/58/58 71/60/60
f 71/60/60 53/58/58 55/59/59
f 35/61/61 36/62/62 33/68/68
f 33/68/68 36/62/62 34/67/67
f 34/67/67 36/62/62 40/66/66
f 40/66/66 36/62/62 38/63/63
f 40/66/66 38/63/63 39/65/65
f 39/65/65 38/63/63 37/64/64
f 37/69/69 21/70/70 39/72/72
f 39/72/72 21/70/70 23/71/71
f 50/73/73 66/74/74 56/76/76
f 56/76/76 66/74/74 72/75/75
f 51/78/78 49/79/79 52/77/77
f 52/77/77 49/79/79 50/80/80
f 52/77/77 50/80/80 56/81/81
f 52/77/77 56/81/81 54/84/84
f 54/84/84 56/81/81 55/82/82
f 54/84/84 55/82/82 53/83/83
f 51/85/85 67/86/86 49/88/88
f 49/88/88 67/86/86 65/87/87
f 55/90/90 56/91/91 71/89/89
f 71/89/89 56/91/91 72/92/92
f 18/93/93 34/94/94 24/96/96
f 24/96/96 34/94/94 40/95/95
f 19/98/98 17/99/99 20/97/97
f 20/97/97 17/99/99 18/100/100
f 20/97/97 18/100/100 24/101/101
f 20/97/97 24/101/101 22/104/104
f 22/104/104 24/101/101 23/102/102
f 22/104/104 23/102/102 21/103/103
f 19/105/105 35/106/106 17/108/108
f 17/108/108 35/106/106 33/107/107
f 23/110/110 24/111/111 39/109/109
f 39/109/109 24/111/111 40/112/112
f 48/116/116 64/113/113 74/132/132
f 74/132/132 64/113/113 63/114/114
f 74/132/132 63/114/114 62/121/121
f 62/121/121 63/114/114 46/124/124
f 46/124/124 63/114/114 47/115/115
f 46/124/124 47/115/115 30/117/117
f 30/117/117 47/115/115 31/126/126
f 30/117/117 31/126/126 14/120/120
f 14/120/120 31/126/126 15/127/127
f 14/120/120 15/127/127 1/130/130
f 1/130/130 15/127/127 2/129/129
f 2/129/129 15/127/127 16/128/128
f 2/129/129 16/128/128 32/125/125
f 47/115/115 48/116/116 31/126/126
f 31/126/126 48/116/116 32/125/125
f 32/125/125 48/116/116 2/129/129
f 2/129/129 48/116/116 74/132/132
f 30/117/117 29/118/118 46/124/124
f 46/124/124 29/118/118 45/123/123
f 45/123/123 29/118/118 1/130/130
f 45/123/123 1/130/130 73/131/131
f 29/118/118 13/119/119 1/130/130
f 1/130/130 13/119/119 14/120/120
f 74/132/132 62/121/121 73/131/131
f 73/131/131 62/121/121 61/122/122
f 73/131/131 61/122/122 45/123/123
f 73/133/133 1/134/134 75/136/136
f 75/136/136 1/134/134 3/135/135
f 74/137/137 73/138/138 76/140/140
f 76/140/140 73/138/138 75/139/139
f 2/141/141 74/142/142 4/144/144
f 4/144/144 74/142/142 76/143/143
f 1/145/145 2/146/146 3/148/148
f 3/148/148 2/146/146 4/147/147
f 66/150/150 76/159/159 65/149/149
f 65/149/149 76/159/159 75/160/160
f 65/149/149 75/160/160 49/152/152
f 49/152/152 75/160/160 3/157/157
f 49/152/152 3/157/157 33/153/153
f 33/153/153 3/157/157 17/156/156
f 17/156/156 3/157/157 4/158/158
f 17/156/156 4/158/158 18/155/155
f 18/155/155 4/158/158 34/154/154
f 34/154/154 4/158/158 50/151/151
f 34/154/154 50/151/151 49/152/152
f 66/150/150 50/151/151 76/159/159
f 76/159/159 50/151/151 4/158/158
f 33/153/153 34/154/154 49/152/152
f 28/161/161 27/162/162 32/164/164
f 32/164/164 27/162/162 31/163/163
f 12/165/165 28/166/166 16/168/168
f 16/168/168 28/166/166 32/167/167
f 11/169/169 12/170/170 15/172/172
f 15/172/172 12/170/170 16/171/171
f 27/173/173 11/174/174 31/176/176
f 31/176/176 11/174/174 15/175/175
f 27/178/178 28/179/179 11/177/177
f 11/177/177 28/179/179 12/180/180
f 58/181/181 57/182/182 62/184/184
f 62/184/184 57/182/182 61/183/183
f 42/185/185 58/186/186 46/188/188
f 46/188/188 58/186/186 62/187/187
f 41/189/189 42/190/190 45/192/192
f 45/192/192 42/190/190 46/191/191
f 57/193/193 41/194/194 61/196/196
f 61/196/196 41/194/194 45/195/195
f 57/198/198 58/199/199 41/197/197
f 41/197/197 58/199/199 42/200/200
f 26/201/201 25/202/202 30/204/204
f 30/204/204 25/202/202 29/203/203
f 10/205/205 26/206/206 14/208/208
f 14/208/208 26/206/206 30/207/207
f 9/209/209 10/210/210 13/212/212
f 13/212/212 10/210/210 14/211/211
f 25/213/213 9/214/214 29/216/216
f 29/216/216 9/214/214 13/215/215
f 25/218/218 26/219/219 9/217/217
f 9/217/217 26/219/219 10/220/220
f 60/221/221 59/222/222 64/224/224
f 64/224/224 59/222/222 63/223/223
f 44/225/225 60/226/226 48/228/228
f 48/228/228 60/226/226 64/227/227
f 43/229/229 44/230/230 47/232/232
f 47/232/232 44/230/230 48/231/231
f 59/233/233 43/234/234 63/236/236
f 63/236/236 43/234/234 47/235/235
f 59/238/238 60/239/239 43/237/237
f 43/237/237 60/239/239 44/240/240

# 80 vertices
# 240 texture params
# 240 normals
# 160 facets

# 1 groups
