# WaveFront *.obj file (generated by Autodesk ATF)

mtllib IceCube.mtl

g IceCube

v -0.160000 0.050000 -0.110000
v -0.160000 0.050000 0.110000
v -0.160000 0.200000 -0.110000
v -0.160000 0.200000 0.110000
v -0.153607 0.220606 -0.123183
v -0.153607 0.220606 0.123183
v -0.153301 0.025000 -0.110000
v -0.153301 0.025000 0.110000
v -0.153301 0.050000 -0.135000
v -0.153301 0.050000 0.135000
v -0.153301 0.200000 -0.135000
v -0.153301 0.200000 0.135000
v -0.153301 0.225000 -0.110000
v -0.153301 0.225000 0.110000
v -0.148414 0.019008 -0.117991
v -0.148414 0.019008 0.117991
v -0.148414 0.042009 -0.140992
v -0.148414 0.042009 0.140992
v -0.140992 0.207991 -0.148414
v -0.140992 0.207991 0.148414
v -0.135000 0.006699 -0.110000
v -0.135000 0.006699 0.110000
v -0.135000 0.050000 -0.153301
v -0.135000 0.050000 0.153301
v -0.135000 0.200000 -0.153301
v -0.135000 0.200000 0.153301
v -0.135000 0.243301 -0.110000
v -0.135000 0.243301 0.110000
v -0.130606 0.243607 -0.123183
v -0.130606 0.243607 0.123183
v -0.123183 0.006393 -0.130606
v -0.123183 0.006393 0.130606
v -0.123183 0.029394 -0.153607
v -0.123183 0.029394 0.153607
v -0.117991 0.230992 -0.148414
v -0.117991 0.230992 0.148414
v -0.110000 0.000000 -0.110000
v -0.110000 0.000000 0.110000
v -0.110000 0.006699 -0.135000
v -0.110000 0.006699 0.135000
v -0.110000 0.025000 -0.153301
v -0.110000 0.025000 0.153301
v -0.110000 0.050000 -0.160000
v -0.110000 0.050000 0.160000
v -0.110000 0.200000 -0.160000
v -0.110000 0.200000 0.160000
v -0.110000 0.225000 -0.153301
v -0.110000 0.225000 0.153301
v -0.110000 0.243301 -0.135000
v -0.110000 0.243301 0.135000
v -0.110000 0.250000 -0.110000
v -0.110000 0.250000 0.110000
v 0.110000 0.000000 -0.110000
v 0.110000 0.000000 0.110000
v 0.110000 0.006699 -0.135000
v 0.110000 0.006699 0.135000
v 0.110000 0.025000 -0.153301
v 0.110000 0.025000 0.153301
v 0.110000 0.050000 -0.160000
v 0.110000 0.050000 0.160000
v 0.110000 0.200000 -0.160000
v 0.110000 0.200000 0.160000
v 0.110000 0.225000 -0.153301
v 0.110000 0.225000 0.153301
v 0.110000 0.243301 -0.135000
v 0.110000 0.243301 0.135000
v 0.110000 0.250000 -0.110000
v 0.110000 0.250000 0.110000
v 0.117991 0.238414 -0.140992
v 0.117991 0.238414 0.140992
v 0.123183 0.006393 -0.130606
v 0.123183 0.006393 0.130606
v 0.123183 0.029394 -0.153607
v 0.123183 0.029394 0.153607
v 0.130606 0.213183 -0.153607
v 0.130606 0.213183 0.153607
v 0.135000 0.006699 -0.110000
v 0.135000 0.006699 0.110000
v 0.135000 0.050000 -0.153301
v 0.135000 0.050000 0.153301
v 0.135000 0.200000 -0.153301
v 0.135000 0.200000 0.153301
v 0.135000 0.243301 -0.110000
v 0.135000 0.243301 0.110000
v 0.140992 0.238414 -0.117991
v 0.140992 0.238414 0.117991
v 0.148414 0.019008 -0.117991
v 0.148414 0.019008 0.117991
v 0.148414 0.042009 -0.140992
v 0.148414 0.042009 0.140992
v 0.153301 0.025000 -0.110000
v 0.153301 0.025000 0.110000
v 0.153301 0.050000 -0.135000
v 0.153301 0.050000 0.135000
v 0.153301 0.200000 -0.135000
v 0.153301 0.200000 0.135000
v 0.153301 0.225000 -0.110000
v 0.153301 0.225000 0.110000
v 0.153607 0.213183 -0.130606
v 0.153607 0.213183 0.130606
v 0.160000 0.050000 -0.110000
v 0.160000 0.050000 0.110000
v 0.160000 0.200000 -0.110000
v 0.160000 0.200000 0.110000
vt 0.002103 -0.004357 0.000000
vt 0.002958 -0.001559 0.000000
vt 0.002958 0.001559 0.000000
vt 0.002103 0.004357 0.000000
vt -0.000274 0.003247 0.000000
vt -0.002635 0.002072 0.000000
vt -0.004777 0.000000 0.000000
vt -0.002635 -0.002072 0.000000
vt -0.000274 -0.003247 0.000000
vt 0.001571 -0.001717 0.000000
vt -0.001571 -0.001717 0.000000
vt 0.001571 0.001717 0.000000
vt -0.001571 0.001717 0.000000
vt 0.002103 0.004357 0.000000
vt -0.000274 0.003247 0.000000
vt -0.002635 0.002072 0.000000
vt -0.004777 0.000000 0.000000
vt -0.002635 -0.002072 0.000000
vt -0.000274 -0.003247 0.000000
vt 0.002103 -0.004357 0.000000
vt 0.002958 -0.001559 0.000000
vt 0.002958 0.001559 0.000000
vt -0.001571 0.001717 0.000000
vt 0.001571 0.001717 0.000000
vt -0.001571 -0.001717 0.000000
vt 0.001571 -0.001717 0.000000
vt -0.011000 0.003927 0.000000
vt -0.011000 0.001309 0.000000
vt -0.011000 -0.001309 0.000000
vt -0.011000 -0.003927 0.000000
vt 0.011000 -0.003927 0.000000
vt 0.011000 -0.001309 0.000000
vt 0.011000 0.001309 0.000000
vt 0.011000 0.003927 0.000000
vt -0.002103 -0.004357 0.000000
vt 0.000274 -0.003247 0.000000
vt 0.002635 -0.002072 0.000000
vt 0.004777 0.000000 0.000000
vt 0.002635 0.002072 0.000000
vt 0.000274 0.003247 0.000000
vt -0.002103 0.004357 0.000000
vt -0.002958 0.001559 0.000000
vt -0.002958 -0.001559 0.000000
vt -0.001571 0.001717 0.000000
vt 0.001571 -0.001717 0.000000
vt -0.001571 -0.001717 0.000000
vt 0.001571 0.001717 0.000000
vt -0.004777 0.000000 0.000000
vt -0.002635 -0.002072 0.000000
vt -0.000274 -0.003247 0.000000
vt 0.002103 -0.004357 0.000000
vt 0.002958 -0.001559 0.000000
vt 0.002958 0.001559 0.000000
vt 0.002103 0.004357 0.000000
vt -0.000274 0.003247 0.000000
vt -0.002635 0.002072 0.000000
vt 0.001571 0.001717 0.000000
vt -0.001571 0.001717 0.000000
vt -0.001571 -0.001717 0.000000
vt 0.001571 -0.001717 0.000000
vt -0.002103 0.004357 0.000000
vt -0.002958 0.001559 0.000000
vt -0.002958 -0.001559 0.000000
vt -0.002103 -0.004357 0.000000
vt 0.000274 -0.003247 0.000000
vt 0.002635 -0.002072 0.000000
vt 0.004777 0.000000 0.000000
vt 0.002635 0.002072 0.000000
vt 0.000274 0.003247 0.000000
vt -0.001571 0.001717 0.000000
vt 0.001571 0.001717 0.000000
vt -0.001571 -0.001717 0.000000
vt 0.001571 -0.001717 0.000000
vt -0.011000 0.003927 0.000000
vt -0.011000 0.001309 0.000000
vt -0.011000 -0.001309 0.000000
vt -0.011000 -0.003927 0.000000
vt 0.011000 -0.003927 0.000000
vt 0.011000 -0.001309 0.000000
vt 0.011000 0.001309 0.000000
vt 0.011000 0.003927 0.000000
vt 0.004777 0.000000 0.000000
vt 0.002635 0.002072 0.000000
vt 0.000274 0.003247 0.000000
vt -0.002103 0.004357 0.000000
vt -0.002958 0.001559 0.000000
vt -0.002958 -0.001559 0.000000
vt -0.002103 -0.004357 0.000000
vt 0.000274 -0.003247 0.000000
vt 0.002635 -0.002072 0.000000
vt -0.001571 0.001717 0.000000
vt -0.001571 -0.001717 0.000000
vt 0.001571 -0.001717 0.000000
vt 0.001571 0.001717 0.000000
vt -0.011000 0.003927 0.000000
vt -0.011000 0.001309 0.000000
vt -0.011000 -0.001309 0.000000
vt -0.011000 -0.003927 0.000000
vt 0.011000 -0.003927 0.000000
vt 0.011000 -0.001309 0.000000
vt 0.011000 0.001309 0.000000
vt 0.011000 0.003927 0.000000
vt -0.013750 0.003927 0.000000
vt -0.013750 0.001309 0.000000
vt -0.013750 -0.001309 0.000000
vt -0.013750 -0.003927 0.000000
vt 0.001250 -0.003927 0.000000
vt 0.001250 -0.001309 0.000000
vt 0.001250 0.001309 0.000000
vt 0.001250 0.003927 0.000000
vt -0.002103 -0.004357 0.000000
vt 0.000274 -0.003247 0.000000
vt 0.002635 -0.002072 0.000000
vt 0.004777 0.000000 0.000000
vt 0.002635 0.002072 0.000000
vt 0.000274 0.003247 0.000000
vt -0.002103 0.004357 0.000000
vt -0.002958 0.001559 0.000000
vt -0.002958 -0.001559 0.000000
vt -0.001571 0.001717 0.000000
vt 0.001571 -0.001717 0.000000
vt -0.001571 -0.001717 0.000000
vt 0.001571 0.001717 0.000000
vt -0.002103 0.004357 0.000000
vt -0.002958 0.001559 0.000000
vt -0.002958 -0.001559 0.000000
vt -0.002103 -0.004357 0.000000
vt 0.000274 -0.003247 0.000000
vt 0.002635 -0.002072 0.000000
vt 0.004777 0.000000 0.000000
vt 0.002635 0.002072 0.000000
vt 0.000274 0.003247 0.000000
vt -0.001571 0.001717 0.000000
vt 0.001571 0.001717 0.000000
vt -0.001571 -0.001717 0.000000
vt 0.001571 -0.001717 0.000000
vt -0.011000 0.003927 0.000000
vt -0.011000 0.001309 0.000000
vt -0.011000 -0.001309 0.000000
vt -0.011000 -0.003927 0.000000
vt 0.011000 -0.003927 0.000000
vt 0.011000 -0.001309 0.000000
vt 0.011000 0.001309 0.000000
vt 0.011000 0.003927 0.000000
vt -0.019000 0.003927 0.000000
vt -0.019000 0.001309 0.000000
vt -0.019000 -0.001309 0.000000
vt -0.019000 -0.003927 0.000000
vt 0.003000 -0.003927 0.000000
vt 0.003000 -0.001309 0.000000
vt 0.003000 0.001309 0.000000
vt 0.003000 0.003927 0.000000
vt -0.013750 0.003927 0.000000
vt -0.013750 0.001309 0.000000
vt -0.013750 -0.001309 0.000000
vt -0.013750 -0.003927 0.000000
vt 0.001250 -0.003927 0.000000
vt 0.001250 -0.001309 0.000000
vt 0.001250 0.001309 0.000000
vt 0.001250 0.003927 0.000000
vt -0.001250 0.003927 0.000000
vt -0.001250 0.001309 0.000000
vt -0.001250 -0.001309 0.000000
vt -0.001250 -0.003927 0.000000
vt 0.013750 -0.003927 0.000000
vt 0.013750 -0.001309 0.000000
vt 0.013750 0.001309 0.000000
vt 0.013750 0.003927 0.000000
vt -0.003000 0.003927 0.000000
vt -0.003000 0.001309 0.000000
vt -0.003000 -0.001309 0.000000
vt -0.003000 -0.003927 0.000000
vt 0.019000 -0.003927 0.000000
vt 0.019000 -0.001309 0.000000
vt 0.019000 0.001309 0.000000
vt 0.019000 0.003927 0.000000
vt -0.019000 0.003927 0.000000
vt -0.019000 0.001309 0.000000
vt -0.019000 -0.001309 0.000000
vt -0.019000 -0.003927 0.000000
vt 0.003000 -0.003927 0.000000
vt 0.003000 -0.001309 0.000000
vt 0.003000 0.001309 0.000000
vt 0.003000 0.003927 0.000000
vt -0.001250 0.003927 0.000000
vt -0.001250 0.001309 0.000000
vt -0.001250 -0.001309 0.000000
vt -0.001250 -0.003927 0.000000
vt 0.013750 -0.003927 0.000000
vt 0.013750 -0.001309 0.000000
vt 0.013750 0.001309 0.000000
vt 0.013750 0.003927 0.000000
vt -0.003000 0.003927 0.000000
vt -0.003000 0.001309 0.000000
vt -0.003000 -0.001309 0.000000
vt -0.003000 -0.003927 0.000000
vt 0.019000 -0.003927 0.000000
vt 0.019000 -0.001309 0.000000
vt 0.019000 0.001309 0.000000
vt 0.019000 0.003927 0.000000
vt 0.027000 -0.011000 0.000000
vt 0.027000 0.011000 0.000000
vt 0.005000 0.011000 0.000000
vt 0.005000 -0.011000 0.000000
vt 0.005000 0.011000 0.000000
vt 0.005000 -0.011000 0.000000
vt 0.020000 -0.011000 0.000000
vt 0.020000 0.011000 0.000000
vt -0.011000 0.007500 0.000000
vt -0.011000 -0.007500 0.000000
vt 0.011000 -0.007500 0.000000
vt 0.011000 0.007500 0.000000
vt 0.020000 -0.011000 0.000000
vt 0.020000 0.011000 0.000000
vt 0.005000 0.011000 0.000000
vt 0.005000 -0.011000 0.000000
vt 0.005000 0.011000 0.000000
vt 0.005000 -0.011000 0.000000
vt 0.027000 -0.011000 0.000000
vt 0.027000 0.011000 0.000000
vt -0.011000 0.007500 0.000000
vt -0.011000 -0.007500 0.000000
vt 0.011000 -0.007500 0.000000
vt 0.011000 0.007500 0.000000
vn 0.000000 0.000000 -0.100000
vn 0.000000 -0.050000 -0.086603
vn 0.000000 -0.086603 -0.050000
vn 0.000000 -0.100000 0.000000
vn -0.050000 -0.086603 0.000000
vn -0.086603 -0.050000 0.000000
vn -0.100000 0.000000 0.000000
vn -0.086603 0.000000 -0.050000
vn -0.050000 0.000000 -0.086603
vn -0.026367 -0.041213 -0.087214
vn -0.076829 -0.015981 -0.061983
vn -0.026367 -0.087214 -0.041213
vn -0.076829 -0.061983 -0.015981
vn 0.000000 0.000000 0.100000
vn -0.050000 0.000000 0.086603
vn -0.086603 0.000000 0.050000
vn -0.100000 0.000000 0.000000
vn -0.086603 -0.050000 0.000000
vn -0.050000 -0.086603 0.000000
vn 0.000000 -0.100000 0.000000
vn 0.000000 -0.086603 0.050000
vn 0.000000 -0.050000 0.086603
vn -0.076829 -0.015981 0.061983
vn -0.026367 -0.041213 0.087214
vn -0.076829 -0.061983 0.015981
vn -0.026367 -0.087214 0.041213
vn -0.100000 0.000000 0.000000
vn -0.086603 -0.050000 0.000000
vn -0.050000 -0.086603 0.000000
vn 0.000000 -0.100000 0.000000
vn 0.000000 -0.100000 0.000000
vn -0.050000 -0.086603 0.000000
vn -0.086603 -0.050000 0.000000
vn -0.100000 0.000000 0.000000
vn 0.000000 0.000000 -0.100000
vn 0.050000 0.000000 -0.086603
vn 0.086603 0.000000 -0.050000
vn 0.100000 0.000000 0.000000
vn 0.086603 -0.050000 0.000000
vn 0.050000 -0.086603 0.000000
vn 0.000000 -0.100000 0.000000
vn 0.000000 -0.086603 -0.050000
vn 0.000000 -0.050000 -0.086603
vn 0.026367 -0.087214 -0.041213
vn 0.076829 -0.015981 -0.061983
vn 0.026367 -0.041213 -0.087214
vn 0.076829 -0.061983 -0.015981
vn 0.000000 0.000000 -0.100000
vn -0.050000 0.000000 -0.086603
vn -0.086603 0.000000 -0.050000
vn -0.100000 0.000000 0.000000
vn -0.086603 0.050000 0.000000
vn -0.050000 0.086603 0.000000
vn 0.000000 0.100000 0.000000
vn 0.000000 0.086603 -0.050000
vn 0.000000 0.050000 -0.086603
vn -0.041213 0.087214 -0.026367
vn -0.015981 0.061983 -0.076829
vn -0.061983 0.015981 -0.076829
vn -0.087214 0.041213 -0.026367
vn 0.000000 0.000000 0.100000
vn 0.000000 -0.050000 0.086603
vn 0.000000 -0.086603 0.050000
vn 0.000000 -0.100000 0.000000
vn 0.050000 -0.086603 0.000000
vn 0.086603 -0.050000 0.000000
vn 0.100000 0.000000 0.000000
vn 0.086603 0.000000 0.050000
vn 0.050000 0.000000 0.086603
vn 0.026367 -0.041213 0.087214
vn 0.076829 -0.015981 0.061983
vn 0.026367 -0.087214 0.041213
vn 0.076829 -0.061983 0.015981
vn 0.000000 -0.100000 0.000000
vn 0.050000 -0.086603 0.000000
vn 0.086603 -0.050000 0.000000
vn 0.100000 0.000000 0.000000
vn 0.100000 0.000000 0.000000
vn 0.086603 -0.050000 0.000000
vn 0.050000 -0.086603 0.000000
vn 0.000000 -0.100000 0.000000
vn 0.000000 0.000000 0.100000
vn 0.000000 0.050000 0.086603
vn 0.000000 0.086603 0.050000
vn 0.000000 0.100000 0.000000
vn -0.050000 0.086603 0.000000
vn -0.086603 0.050000 0.000000
vn -0.100000 0.000000 0.000000
vn -0.086603 0.000000 0.050000
vn -0.050000 0.000000 0.086603
vn -0.041213 0.087214 0.026367
vn -0.087214 0.041213 0.026367
vn -0.061983 0.015981 0.076829
vn -0.015981 0.061983 0.076829
vn -0.100000 0.000000 0.000000
vn -0.086603 0.050000 0.000000
vn -0.050000 0.086603 0.000000
vn 0.000000 0.100000 0.000000
vn 0.000000 0.100000 0.000000
vn -0.050000 0.086603 0.000000
vn -0.086603 0.050000 0.000000
vn -0.100000 0.000000 0.000000
vn -0.100000 0.000000 0.000000
vn -0.086603 0.000000 0.050000
vn -0.050000 0.000000 0.086603
vn 0.000000 0.000000 0.100000
vn 0.000000 0.000000 0.100000
vn -0.050000 0.000000 0.086603
vn -0.086603 0.000000 0.050000
vn -0.100000 0.000000 0.000000
vn 0.000000 0.000000 -0.100000
vn 0.000000 0.050000 -0.086603
vn 0.000000 0.086603 -0.050000
vn 0.000000 0.100000 0.000000
vn 0.050000 0.086603 0.000000
vn 0.086603 0.050000 0.000000
vn 0.100000 0.000000 0.000000
vn 0.086603 0.000000 -0.050000
vn 0.050000 0.000000 -0.086603
vn 0.087214 0.026367 -0.041213
vn 0.015981 0.076829 -0.061983
vn 0.041213 0.026367 -0.087214
vn 0.061983 0.076829 -0.015981
vn 0.000000 0.000000 0.100000
vn 0.050000 0.000000 0.086603
vn 0.086603 0.000000 0.050000
vn 0.100000 0.000000 0.000000
vn 0.086603 0.050000 0.000000
vn 0.050000 0.086603 0.000000
vn 0.000000 0.100000 0.000000
vn 0.000000 0.086603 0.050000
vn 0.000000 0.050000 0.086603
vn 0.041213 0.026367 0.087214
vn 0.015981 0.076829 0.061983
vn 0.087214 0.026367 0.041213
vn 0.061983 0.076829 0.015981
vn 0.100000 0.000000 0.000000
vn 0.086603 0.050000 0.000000
vn 0.050000 0.086603 0.000000
vn 0.000000 0.100000 0.000000
vn 0.000000 0.100000 0.000000
vn 0.050000 0.086603 0.000000
vn 0.086603 0.050000 0.000000
vn 0.100000 0.000000 0.000000
vn 0.000000 0.100000 0.000000
vn 0.000000 0.086603 0.050000
vn 0.000000 0.050000 0.086603
vn 0.000000 0.000000 0.100000
vn 0.000000 0.000000 0.100000
vn 0.000000 0.050000 0.086603
vn 0.000000 0.086603 0.050000
vn 0.000000 0.100000 0.000000
vn 0.100000 0.000000 0.000000
vn 0.086603 0.000000 0.050000
vn 0.050000 0.000000 0.086603
vn 0.000000 0.000000 0.100000
vn 0.000000 0.000000 0.100000
vn 0.050000 0.000000 0.086603
vn 0.086603 0.000000 0.050000
vn 0.100000 0.000000 0.000000
vn 0.100000 0.000000 0.000000
vn 0.086603 0.000000 -0.050000
vn 0.050000 0.000000 -0.086603
vn 0.000000 0.000000 -0.100000
vn 0.000000 0.000000 -0.100000
vn 0.050000 0.000000 -0.086603
vn 0.086603 0.000000 -0.050000
vn 0.100000 0.000000 0.000000
vn 0.000000 0.100000 0.000000
vn 0.000000 0.086603 -0.050000
vn 0.000000 0.050000 -0.086603
vn 0.000000 0.000000 -0.100000
vn 0.000000 0.000000 -0.100000
vn 0.000000 0.050000 -0.086603
vn 0.000000 0.086603 -0.050000
vn 0.000000 0.100000 0.000000
vn 0.000000 -0.100000 0.000000
vn 0.000000 -0.086603 0.050000
vn 0.000000 -0.050000 0.086603
vn 0.000000 0.000000 0.100000
vn 0.000000 0.000000 0.100000
vn 0.000000 -0.050000 0.086603
vn 0.000000 -0.086603 0.050000
vn 0.000000 -0.100000 0.000000
vn -0.100000 0.000000 0.000000
vn -0.086603 0.000000 -0.050000
vn -0.050000 0.000000 -0.086603
vn 0.000000 0.000000 -0.100000
vn 0.000000 0.000000 -0.100000
vn -0.050000 0.000000 -0.086603
vn -0.086603 0.000000 -0.050000
vn -0.100000 0.000000 0.000000
vn 0.000000 -0.100000 0.000000
vn 0.000000 -0.086603 -0.050000
vn 0.000000 -0.050000 -0.086603
vn 0.000000 0.000000 -0.100000
vn 0.000000 0.000000 -0.100000
vn 0.000000 -0.050000 -0.086603
vn 0.000000 -0.086603 -0.050000
vn 0.000000 -0.100000 0.000000
vn 0.000000 -0.100000 0.000000
vn 0.000000 -0.100000 0.000000
vn 0.000000 -0.100000 0.000000
vn 0.000000 -0.100000 0.000000
vn -0.100000 0.000000 0.000000
vn -0.100000 0.000000 0.000000
vn -0.100000 0.000000 0.000000
vn -0.100000 0.000000 0.000000
vn 0.000000 0.000000 0.100000
vn 0.000000 0.000000 0.100000
vn 0.000000 0.000000 0.100000
vn 0.000000 0.000000 0.100000
vn 0.100000 0.000000 0.000000
vn 0.100000 0.000000 0.000000
vn 0.100000 0.000000 0.000000
vn 0.100000 0.000000 0.000000
vn 0.000000 0.100000 0.000000
vn 0.000000 0.100000 0.000000
vn 0.000000 0.100000 0.000000
vn 0.000000 0.100000 0.000000
vn 0.000000 0.000000 -0.100000
vn 0.000000 0.000000 -0.100000
vn 0.000000 0.000000 -0.100000
vn 0.000000 0.000000 -0.100000
usemtl 191,191,191
f 23/9/9 43/1/1 33/10/10
f 33/10/10 43/1/1 41/2/2
f 33/10/10 41/2/2 39/3/3
f 33/10/10 39/3/3 31/12/12
f 31/12/12 39/3/3 37/4/4
f 31/12/12 37/4/4 21/5/5
f 31/12/12 21/5/5 15/13/13
f 15/13/13 21/5/5 7/6/6
f 15/13/13 7/6/6 1/7/7
f 15/13/13 1/7/7 17/11/11
f 17/11/11 1/7/7 9/8/8
f 17/11/11 9/8/8 23/9/9
f 17/11/11 23/9/9 33/10/10
f 15/13/13 17/11/11 33/10/10
f 31/12/12 15/13/13 33/10/10
f 42/22/22 44/14/14 34/24/24
f 34/24/24 44/14/14 24/15/15
f 34/24/24 24/15/15 18/23/23
f 18/23/23 24/15/15 10/16/16
f 18/23/23 10/16/16 2/17/17
f 18/23/23 2/17/17 16/25/25
f 16/25/25 2/17/17 8/18/18
f 16/25/25 8/18/18 22/19/19
f 16/25/25 22/19/19 32/26/26
f 32/26/26 22/19/19 38/20/20
f 32/26/26 38/20/20 40/21/21
f 40/21/21 42/22/22 32/26/26
f 32/26/26 42/22/22 34/24/24
f 32/26/26 34/24/24 18/23/23
f 16/25/25 32/26/26 18/23/23
f 1/27/27 7/28/28 2/34/34
f 2/34/34 7/28/28 8/33/33
f 8/33/33 7/28/28 22/32/32
f 22/32/32 7/28/28 21/29/29
f 22/32/32 21/29/29 37/30/30
f 37/30/30 38/31/31 22/32/32
f 57/43/43 59/35/35 73/46/46
f 73/46/46 59/35/35 79/36/36
f 73/46/46 79/36/36 89/45/45
f 89/45/45 79/36/36 93/37/37
f 89/45/45 93/37/37 101/38/38
f 101/38/38 91/39/39 89/45/45
f 89/45/45 91/39/39 87/47/47
f 89/45/45 87/47/47 71/44/44
f 71/44/44 87/47/47 77/40/40
f 71/44/44 77/40/40 53/41/41
f 91/39/39 77/40/40 87/47/47
f 53/41/41 55/42/42 71/44/44
f 71/44/44 55/42/42 73/46/46
f 71/44/44 73/46/46 89/45/45
f 55/42/42 57/43/43 73/46/46
f 25/49/49 19/59/59 45/48/48
f 45/48/48 19/59/59 35/58/58
f 45/48/48 35/58/58 47/56/56
f 47/56/56 35/58/58 49/55/55
f 49/55/55 35/58/58 29/57/57
f 49/55/55 29/57/57 51/54/54
f 51/54/54 29/57/57 27/53/53
f 27/53/53 29/57/57 5/60/60
f 27/53/53 5/60/60 13/52/52
f 13/52/52 5/60/60 3/51/51
f 3/51/51 5/60/60 11/50/50
f 11/50/50 5/60/60 19/59/59
f 11/50/50 19/59/59 25/49/49
f 19/59/59 5/60/60 35/58/58
f 35/58/58 5/60/60 29/57/57
f 80/69/69 60/61/61 74/70/70
f 74/70/70 60/61/61 58/62/62
f 74/70/70 58/62/62 72/72/72
f 72/72/72 58/62/62 56/63/63
f 72/72/72 56/63/63 54/64/64
f 54/64/64 78/65/65 72/72/72
f 72/72/72 78/65/65 88/73/73
f 72/72/72 88/73/73 74/70/70
f 74/70/70 88/73/73 90/71/71
f 74/70/70 90/71/71 80/69/69
f 80/69/69 90/71/71 94/68/68
f 94/68/68 90/71/71 88/73/73
f 94/68/68 88/73/73 102/67/67
f 102/67/67 88/73/73 92/66/66
f 92/66/66 88/73/73 78/65/65
f 53/74/74 77/75/75 54/81/81
f 54/81/81 77/75/75 78/80/80
f 78/80/80 77/75/75 92/79/79
f 92/79/79 77/75/75 91/76/76
f 92/79/79 91/76/76 101/77/77
f 101/77/77 102/78/78 92/79/79
f 26/90/90 46/82/82 20/93/93
f 20/93/93 46/82/82 48/83/83
f 20/93/93 48/83/83 36/94/94
f 36/94/94 48/83/83 50/84/84
f 36/94/94 50/84/84 30/91/91
f 30/91/91 50/84/84 52/85/85
f 30/91/91 52/85/85 28/86/86
f 30/91/91 28/86/86 6/92/92
f 6/92/92 28/86/86 14/87/87
f 6/92/92 14/87/87 4/88/88
f 4/88/88 12/89/89 6/92/92
f 6/92/92 12/89/89 20/93/93
f 6/92/92 20/93/93 30/91/91
f 30/91/91 20/93/93 36/94/94
f 12/89/89 26/90/90 20/93/93
f 4/95/95 14/96/96 3/102/102
f 3/102/102 14/96/96 13/101/101
f 13/101/101 14/96/96 27/100/100
f 27/100/100 14/96/96 28/97/97
f 27/100/100 28/97/97 52/98/98
f 52/98/98 51/99/99 27/100/100
f 2/103/103 10/104/104 4/110/110
f 4/110/110 10/104/104 12/109/109
f 12/109/109 10/104/104 26/108/108
f 26/108/108 10/104/104 24/105/105
f 26/108/108 24/105/105 44/106/106
f 44/106/106 46/107/107 26/108/108
f 81/119/119 61/111/111 75/122/122
f 75/122/122 61/111/111 63/112/112
f 75/122/122 63/112/112 69/121/121
f 69/121/121 63/112/112 65/113/113
f 69/121/121 65/113/113 67/114/114
f 67/114/114 83/115/115 69/121/121
f 69/121/121 83/115/115 85/123/123
f 69/121/121 85/123/123 99/120/120
f 99/120/120 85/123/123 97/116/116
f 99/120/120 97/116/116 103/117/117
f 83/115/115 97/116/116 85/123/123
f 103/117/117 95/118/118 99/120/120
f 99/120/120 95/118/118 75/122/122
f 99/120/120 75/122/122 69/121/121
f 95/118/118 81/119/119 75/122/122
f 64/132/132 62/124/124 76/133/133
f 76/133/133 62/124/124 82/125/125
f 76/133/133 82/125/125 100/135/135
f 100/135/135 82/125/125 96/126/126
f 100/135/135 96/126/126 104/127/127
f 104/127/127 98/128/128 100/135/135
f 100/135/135 98/128/128 86/136/136
f 100/135/135 86/136/136 76/133/133
f 76/133/133 86/136/136 70/134/134
f 76/133/133 70/134/134 64/132/132
f 64/132/132 70/134/134 66/131/131
f 66/131/131 70/134/134 86/136/136
f 66/131/131 86/136/136 68/130/130
f 68/130/130 86/136/136 84/129/129
f 84/129/129 86/136/136 98/128/128
f 103/137/137 97/138/138 104/144/144
f 104/144/144 97/138/138 98/143/143
f 98/143/143 97/138/138 84/142/142
f 84/142/142 97/138/138 83/139/139
f 84/142/142 83/139/139 67/140/140
f 67/140/140 68/141/141 84/142/142
f 52/145/145 50/146/146 68/152/152
f 68/152/152 50/146/146 66/151/151
f 66/151/151 50/146/146 64/150/150
f 64/150/150 50/146/146 48/147/147
f 64/150/150 48/147/147 46/148/148
f 46/148/148 62/149/149 64/150/150
f 104/153/153 96/154/154 102/160/160
f 102/160/160 96/154/154 94/159/159
f 94/159/159 96/154/154 80/158/158
f 80/158/158 96/154/154 82/155/155
f 80/158/158 82/155/155 62/156/156
f 62/156/156 60/157/157 80/158/158
f 101/161/161 93/162/162 103/168/168
f 103/168/168 93/162/162 95/167/167
f 95/167/167 93/162/162 81/166/166
f 81/166/166 93/162/162 79/163/163
f 81/166/166 79/163/163 59/164/164
f 59/164/164 61/165/165 81/166/166
f 67/169/169 65/170/170 51/176/176
f 51/176/176 65/170/170 49/175/175
f 49/175/175 65/170/170 47/174/174
f 47/174/174 65/170/170 63/171/171
f 47/174/174 63/171/171 61/172/172
f 61/172/172 45/173/173 47/174/174
f 54/177/177 56/178/178 38/184/184
f 38/184/184 56/178/178 40/183/183
f 40/183/183 56/178/178 42/182/182
f 42/182/182 56/178/178 58/179/179
f 42/182/182 58/179/179 60/180/180
f 60/180/180 44/181/181 42/182/182
f 3/185/185 11/186/186 1/192/192
f 1/192/192 11/186/186 9/191/191
f 9/191/191 11/186/186 23/190/190
f 23/190/190 11/186/186 25/187/187
f 23/190/190 25/187/187 45/188/188
f 45/188/188 43/189/189 23/190/190
f 37/193/193 39/194/194 53/200/200
f 53/200/200 39/194/194 55/199/199
f 55/199/199 39/194/194 57/198/198
f 57/198/198 39/194/194 41/195/195
f 57/198/198 41/195/195 43/196/196
f 43/196/196 59/197/197 57/198/198
f 54/202/202 38/203/203 53/201/201
f 53/201/201 38/203/203 37/204/204
f 3/206/206 1/207/207 4/205/205
f 4/205/205 1/207/207 2/208/208
f 44/210/210 60/211/211 46/209/209
f 46/209/209 60/211/211 62/212/212
f 104/214/214 102/215/215 103/213/213
f 103/213/213 102/215/215 101/216/216
f 67/218/218 51/219/219 68/217/217
f 68/217/217 51/219/219 52/220/220
f 59/222/222 43/223/223 61/221/221
f 61/221/221 43/223/223 45/224/224

# 104 vertices
# 224 texture params
# 224 normals
# 204 facets

# 1 groups
